# xmcd CD database file
#
# Track frame offsets:
#	180
#	16567
#	38165
#	62107
#	93214
#	108360
#	147217
#	171582
#
# Disc length: 2526 seconds
#
# Revision: 0
# Processed by: cddbd v1.5.1PL0 Copyright (c) Steve Scherf et al.
# Submitted via: CDex 1.51
#
DISCID=6009dc08
DTITLE=Pitch Blue Jam - O-Town
DYEAR=1900
DGENRE=Blues
TTITLE0=The O-Town Shuffle
TTITLE1=Hip To It
TTITLE2=Dreamday
TTITLE3=Blues Fetchin' Dog
TTITLE4=16 Tons
TTITLE5=Born Under A Bad Sign (Live)
TTITLE6=Easy Does It
TTITLE7=Take A Rest
EXTD=
EXTT0=
EXTT1=
EXTT2=
EXTT3=
EXTT4=
EXTT5=
EXTT6=
EXTT7=
PLAYORDER=
